<svg width="80" height="80" viewBox="0 0 80 80" fill="none" xmlns="http://www.w3.org/2000/svg">
<path d="M0 20C0 8.95431 8.95431 0 20 0H60C71.0457 0 80 8.95431 80 20V60C80 71.0457 71.0457 80 60 80H0V20Z" fill="url(#paint0_linear_117_72)"/>
<ellipse cx="41.9062" cy="36.8906" rx="21.6562" ry="20.4531" fill="url(#paint1_linear_117_72)"/>
<g filter="url(#filter0_bi_117_72)">
<path d="M15.4375 31.25C15.4375 25.7272 19.9147 21.25 25.4375 21.25H46.3438C51.8666 21.25 56.3438 25.7272 56.3438 31.25V54.5625C56.3438 60.0853 51.8666 64.5625 46.3438 64.5625H16.9375C16.1091 64.5625 15.4375 63.8909 15.4375 63.0625V31.25Z" fill="#70EFDE" fill-opacity="0.4"/>
</g>
<rect x="25.0625" y="33.2812" width="21.6562" height="3.60938" rx="1.80469" fill="white"/>
<rect x="25.0625" y="40.5" width="16.8438" height="3.60938" rx="1.80469" fill="white"/>
<rect x="25.0625" y="47.7188" width="19.25" height="3.60938" rx="1.80469" fill="white"/>
<defs>
<filter id="filter0_bi_117_72" x="11.4375" y="17.25" width="48.9062" height="51.3125" filterUnits="userSpaceOnUse" color-interpolation-filters="sRGB">
<feFlood flood-opacity="0" result="BackgroundImageFix"/>
<feGaussianBlur in="BackgroundImage" stdDeviation="2"/>
<feComposite in2="SourceAlpha" operator="in" result="effect1_backgroundBlur_117_72"/>
<feBlend mode="normal" in="SourceGraphic" in2="effect1_backgroundBlur_117_72" result="shape"/>
<feColorMatrix in="SourceAlpha" type="matrix" values="0 0 0 0 0 0 0 0 0 0 0 0 0 0 0 0 0 0 127 0" result="hardAlpha"/>
<feOffset dy="0.2"/>
<feGaussianBlur stdDeviation="1"/>
<feComposite in2="hardAlpha" operator="arithmetic" k2="-1" k3="1"/>
<feColorMatrix type="matrix" values="0 0 0 0 1 0 0 0 0 1 0 0 0 0 1 0 0 0 0.8 0"/>
<feBlend mode="normal" in2="shape" result="effect2_innerShadow_117_72"/>
</filter>
<linearGradient id="paint0_linear_117_72" x1="4.5" y1="9.5" x2="76" y2="83" gradientUnits="userSpaceOnUse">
<stop stop-color="#006AE6"/>
<stop offset="1" stop-color="#14025C"/>
</linearGradient>
<linearGradient id="paint1_linear_117_72" x1="20.25" y1="16.4375" x2="61.0895" y2="59.6793" gradientUnits="userSpaceOnUse">
<stop stop-color="#00C4B4"/>
<stop offset="1" stop-color="#70EFDE"/>
</linearGradient>
</defs>
</svg>
